<mxfile host="app.diagrams.net" agent="Mozilla/5.0 (X11; Linux x86_64) AppleWebKit/537.36 (KHTML, like Gecko) Chrome/128.0.0.0 Safari/537.36" version="26.0.8">
  <diagram name="Page-1" id="UCJLPG5f1vcfysStxhQV">
    <mxGraphModel dx="2852" dy="3678" grid="1" gridSize="10" guides="1" tooltips="1" connect="1" arrows="1" fold="1" page="1" pageScale="1" pageWidth="850" pageHeight="1100" math="0" shadow="0">
      <root>
        <mxCell id="0" />
        <mxCell id="1" parent="0" />
        <mxCell id="imPj3p6UqNmG1rbHgbQo-1" value="" style="shape=image;verticalLabelPosition=bottom;labelBackgroundColor=default;verticalAlign=top;aspect=fixed;imageAspect=0;image=data:image/png,iVBORw0KGgoAAAANSUhEUgAAB9gAAAY7CAYAAABTG2R4AAAACXBIWXMAAA7EAAAOxAGVKw4bAAAgAElEQVR4nOzd227jOrYFUKdR///LOQ+Ng+2tTpmTISleNMZbwWVpSaJkhwv0/Pr+/v5+AQAAAAAAAAAf/Wd2AQAAAAAAAACwAw12AAAAAAAAAAhosAMAAAAAAABAQIMdAAAAAAAAAAIa7AAAAAAAAAAQ0GAHAAAAAAAAgIAGOwAAAAAAAAAENNgBAAAAAAAAIKDBDgAAAAAAAAABDXYAAAAAAAAACGiwAwAAAAAAAEBAgx0AAAAAAAAAAhrsAAAAAAAAABDQYAcAAAAAAACAgAY7AAAAAAAAAAQ02AEAAAAAAAAgoMEOAAAAAAAAAAENdgAAAAAAAAAIaLADAAAAAAAAQECDHQAAAAAAAAACGuwAAAAAAAAAENBgBwAAAAAAAICABjsAAAAAAAAABDTYAQAAAAAAACCgwQ4AAAAAAAAAAQ12AAAAAAAAAAhosAMAAAAAAABAQIMdAAAAAAAAAAIa7AAAAAAAAAAQ0GAHAAAAAAAAgIAGOwAAAAAAAAAENNgBAAAAAAAAIKDBDgAAAAAAAAABDXYAAAAAAAAACGiwAwAAAAAAAEBAgx0AAAAAAAAAAhrsAAAAAAAAABDQYAcAAAAAAACAgAY7AAAAAAAAAAQ02AEAAAAAAAAgoMEOAAAAAAAAAAENdgAAAAAAAAAIaLADAAAAAAAAQECDHQAAAAAAAAACGuwAAAAAAAAAENBgBwAAAAAAAICABjsAAAAAAAAABDTYAQAAAAAAACCgwQ4AAAAAAAAAAQ12AAAAAAAAAAhosAMAAAAAAABAQIMdAAAAAAAAAAIa7AAAAAAAAAAQ0GAHAAAAAAAAgIAGOwAAAAAAAAAENNgBAAAAAAAAIKDBDgAAAAAAAAABDXYAAAAAAAAACGiwAwAAAAAAAEBAgx0AAAAAAAAAAhrsAAAAAAAAABDQYAcAAAAAAACAgAY7AAAAAAAAAAQ02AEAAAAAAAAgoMEOAAAAAAAAAAENdgAAAAAAAAAIaLADAAAAAAAAQECDHQAAAAAAAAACGuwAAAAAAAAAENBgBwAAAAAAAICABjsAAAAAAAAABDTYAQAAAAAAACCgwQ4AAAAAAAAAAQ12AAAAAAAAAAhosAMAAAAAAABAQIMdAAAAAAAAAAIa7AAAAAAAAAAQ0GAHAAAAAAAAgIAGOwAAAAAAAAAENNgBAAAAAAAAIPBndgFwqq+vr3/9+/v7+9b9tWqpd6VaAAAAAAAAoBcr2AEAAAAAAAAgoMEOAAAAAAAAAAENdgAAAAAAAAAIyGCHjnpnj7fsq5Rb3rPW2m3V1nZ3nj0AAAAAZ9ttvqlU7/vrn177zeu1Wve30rHeeSyl10vvrTXzWGr1HrOjjxU4nxXsAAAAAAAAABDQYAcAAAAAAACAgAY7AAAAAAAAAAS+voVDQKxnTkyr0dlIV5+235oHXyLTBgCA1b4TtuQyrpTl+ZOe+xuZxQkAADuY/bcL0J8V7AAAAAAAAAAQ0GAHAAAAAAAAgIAGOwAAAAAAAAAEZLBDR5/yA2dmpI/e/ug8zNHHDrPdnSn7vr/Zma+1r1/Jdf3ZaefhtOMBAGBvs7+fzt7/U6123j/VM/tv+ZpaW18fPe9Q0nteouZYWYf5a3geK9gBAAAAAAAAIKDBDgAAAAAAAAABDXYAAAAAAAAACMhgh0FG5/lcjc49l8H+O7PzuACAsrszKFvUfu9Z+VhKZh/ryGzRu2tdKVt0dK2jzax357+LRtttHNXY+brvdF1m1zrzOu88xmAHs58v3MOzFJ7HCnYAAAAAAAAACGiwAwAAAAAAAEDgz+wCAE7iJ+H/bvRP0vb8Sdu7f6a19efCVvoZqrvjMa5q9jf753WvZv5c2Gq1tfzUcG+rnRvuUbqura/fabVj+XRPte5r9LHW1vfp/69Wa0nL/k57js6sd6UIh9lKx+7neNe02nV58j0EQF++p8HzWMEOAAAAAAAAAAENdgAAAAAAAAAIaLADAAAAAAAAQEAGO8CNZmfMraQ2y3NkFnfrtmbnpJbO1Z1Zh6MzX3sey04ZyqOtlhU28roDAPvzXWFPrguAzyyAU1jBDgAAAAAAAAABDXYAAAAAAAAACGiwAwAAAAAAAEBABjsAbK6Ul31ynpfssmd6v+6uOcB6St9NYDTfEdfkuvzd9Vzc+RyduW94Is8+gDNYwQ4AAAAAAAAAAQ12AAAAAAAAAAhosAMAAAAAAABAQAY7bGJ0JlbP7Y3OVZNVBP8mM4+n8TkAsDbPaWY7aQzufCyr175yfSvXBtRxPwOcyQp2AAAAAAAAAAhosAMAAAAAAABAQIMdAAAAAAAAAAIy2OEQo3PP7yQ/mp/IGef12vvZtlPtq9W6Wj3A77mfoR/30z+cCwCgJ/OOQIkV7AAAAAAAAAAQ0GAHAAAAAAAAgIAGOwAAAAAAAAAEZLDDpkp51K05MTUZdivVwnMYF3/n3AAAAABARuY6UMsKdgAAAAAAAAAIaLADAAAAAAAAQECDHQAAAAAAAAACMtjhEKUc9NL/n1lL6f0AAAAAADBC7/lome5wPivYAQAAAAAAACCgwQ4AAAAAAAAAAQ12AAAAAAAAAAjIYIdBZueIz97/u5VqmU0ePQAAALAq8xAAAGVWsAMAAAAAAABAQIMdAAAAAAAAAAIa7AAAAAAAAAAQkMEOcKNrltk1k732dQDG8twFAAAAAN5ZwQ4AAAAAAAAAAQ12AAAAAAAAAAhosAMAAAAAAABAQAY7wESlbF/ZvwAAAAA/+/r6+te/zaP8Tu/zeN1eb3de552PZfXa3b/AzqxgBwAAAAAAAICABjsAAAAAAAAABDTYAQAAAAAAACAggx0AAAC4RSkLtJS9KavzDK3joDfjak2rjZMWJx0LZ+idzT066/vT/nrfP7XHUvvdpfR6y/HsVvv1/4+8rgC9WcEOAAAAAAAAAAENdgAAAAAAAAAIaLADAAAAAAAAQEAGOwAAjyH/Ehjl5Axnz05arTaG7s4KBs/JcZzbPmrP4+zn+vv+W7+DjT6WTznjre6uvbT/kXny7nVgNVawAwAAAAAAAEBAgx0AAAAAAAAAAhrsAAAAAAAAABCQwQ4AwGPJcQPYi+f2GVa7jqvVA61Wyi6endXdojYr+6RjebLR17GUyb7S/ftk7hmgxAp2AAAAAAAAAAhosAMAAAAAAABAQIMdAAAAAAAAAAJf30I8ALrZOVsMAKC3mRmSo7+XzcxlvXvfPffXel1qx1TvMdhze73PRauZY/Tq7jFbstLfcSsf2915tbW196yv9753Opar0dd95HN+du13av38Omm+a+djWb32nvXNzqJf+fMWWIMV7AAAAAAAAAAQ0GAHAAAAAAAAgIAGOwAAAAAAAAAE/swuAACAvfTOVb0zz7bW6Kze2oy6O7NNV8rjXC2v7s5xdlqe7af/f3f+7N0Zlu/7uztbuzW3vGV/q9+/refizmOtvS61nyE156a1ltL2Ro/ZlnpWz4BtPdct26p9f+32ao3MAr47G3ilY1n9urdY6fsvn638XYMzeB4AJVawAwAAAAAAAEBAgx0AAAAAAAAAAhrsAAAAAAAAABCQwQ5wo975eQB36J352jOLrDUDsmce7W+2d9XzuT874/nq7np6Gp01+ilDcmQO+Ij3r5Rn2/O6/LS90rOu5Vxc9c6ArD220vZ8Z82Mvs6l94/OQf/t//3p//f+TOhZz2rjf7Vz3UJt+fZnj7t3vZ9dd1730edx5vNipfsn0VLvas9lxtj9Ou9eP/C/rGAHAAAAAAAAgIAGOwAAAAAAAAAENNgBAAAAAAAAICCDHQCAf+md+dg7V/HT+1trq9lXsr07c9Z6X5fW2k/Ou211Z9bo7MznmvfOzgodnXc/c9yudq5P1fua75TBfHX3Z0jv94/eXouVarlaubbXq299s4/1zuf43Z8ZM89t72OdPU520nKuTvtes9J3SPpxHeE8VrADAAAAAAAAQECDHQAAAAAAAAACfiIe4EZ+Dghg/E+Tj1Sq7bSfJ6xRe512Plcr//Tw3T8pfefP219rr32WlKz0rLnbys/dVr2f0577/1UbsdL7vAP8xuhn0cmfCat9/rXsf+dj2e1v6dn7X8lq1wZoZwU7AAAAAAAAAAQ02AEAAAAAAAAgoMEOAAAAAAAAAAEZ7AAA0MlqeX53etKxruTuzPU71dbemot68rnk73rm8dZu6+QxVXtsPkPYzews3Z77q/38G32/zjy3Jz2Xn3Tdeht9LCd95p10LKPtfE8AP7OCHQAAAAAAAAACGuwAAAAAAAAAENBgBwAAAAAAAICADHYAAOjkSRl0o/Oqn3oud8vmm1lvbT5ma0b7yXYbd7vome/eY3s99f4MKB1r7f3eOz/30/Heff+snHO8cm2v1/r1vet9T3x6b6vW87rSs61WqfadxlytkWP0JyPHyehjqa29Zvu1tdfua2TttXa/f05+HsBTWcEOAAAAAAAAAAENdgAAAAAAAAAIaLADAAAAAAAAQEAGOwAAhOSk8XrNzc/rnXvcamQGbGu+5U7362rZnyerzTVfeRyNHhctx96amV5by+gM95r39tZ6bCtn/462en09tRxL7Zje+bzuXHtvvb833X1u3/c3cts/bX/0/npuq1Rr67H0/kw8+R5c+Tsl8DtWsAMAAAAAAABAQIMdAAAAAAAAAAIa7AAAAAAAAAAQ+PoW/gDQzc4ZjgB/MzonueTT9u+ubXSGbMnITNja2luv451Zob2NzAbseZ56aB3zu+472f9VTT27HdtVy7H2fs7e/ey7a1s99lerZ+Z6q9XO1ezPnU9WPrbe+e933/8j9zVzjI8ez72v+51OntNZ7dhG3xPsaeTfu7Vqx+jOzz7gd6xgBwAAAAAAAICABjsAAAAAAAAABDTYAQAAAAAAACAggx2go9UyrQBGuDsTumf+7ch9/+TOrNDZOcQjM2BX/3wdmbe38v32Exmw91j9ngBgLvnWlBgjrOh9XM7OXO/NPQbnsYIdAAAAAAAAAAIa7AAAAAAAAAAQ0GAHAAAAAAAAgIAMdoCO5GEC1PPshHPJ9wSA8XyfppYxwwo+jcPZY7D0d0xtZvvs4wH6s4IdAAAAAAAAAAIa7AAAAAAAAAAQ0GAHAAAAAAAAgIAMdoCOavN3SjyigRX0zlCW9wfPsXKuIgCcyucvtXr/zQdPZ94DzmcFOwAAAAAAAAAENNgBAAAAAAAAIKDBDgAAAAAAAACBP7MLADjJNT+nNZNdBhawotZnG8Dr5XsOAIziM5VaxgwA1LGCHQAAAAAAAAACGuwAAAAAAAAAENBgBwAAAAAAAICADHaAjkq5xDKtgB2Vnl21meyehfAc7ncAAADgNFawAwAAAAAAAEBAgx0AAAAAAAAAAhrsAAAAAAAAABCQwQ4AQBMZywAAAADAU1jBDgAAAAAAAAABDXYAAAAAAAAACGiwAwAAAAAAAEBAgx0AAAAAAAAAAhrsAAAAAAAAABDQYAcAAAAAAACAgAY7AAAAAAAAAAQ02AEAAAAAAAAgoMEOAAAAAAAAAAENdgAAAAAAAAAIaLADAAAAAAAAQECDHQAAAAAAAAACGuwAAAAAAAAAENBgBwAAAAAAAICABjsAAAAAAAAABP7MLgAAAAAAAABO9P39PbsEoDMr2AEAAAAAAAAgoMEOAAAAAAAAAAENdgAAAAAAAAAIyGAHAAAAAACA1+v19fU1dHsy2WF/VrADAAAAAAAAQECDHQAAAAAAAAACfiIeAAAAAAAABvCT8HAeK9gBAAAAAAAAIKDBDgAAAAAAAAABDXYAAAAAAAAACMhgBwAAAAAAgFd7ZvrX19fHf8tkh/1ZwQ4AAAAAAAAAAQ12AAAAAAAAAAhosAMAAAAAAABAQAY7wI2ueTu15PMAAAAAAOzDnC6cxwp2AAAAAAAAAAhosAMAAAAAAABAQIMdAAAAAAAAAAIy2AE6uubp1Gauy+MBAAAA4E7X+avZ81Ol+bSR9Z00lzfzPK6w/5Wsdo8B7axgBwAAAAAAAICABjsAAAAAAAAABDTYAQAAAAAAACAgg/0varNWdibvA/qRLQQAAADASmrnukfPb7XOvb+/f6VafmIuEOBMVrADAAAAAAAAQECDHQAAAAAAAAACGuwAAAAAAAAAEJDBDgAAAAAAh+idC37d3vXfpe2NrGelWgB4DivYAQAAAAAAACCgwQ4AAAAAAAAAAQ12AAAAAAAAAAjIYA/VZq+sTC4MAAAAANBb7bzjSXOuK2s9z9f3z55ffq9npVper/a8+ie781q6DkArK9gBAAAAAAAAIKDBDgAAAAAAAAABDXYAAAAAAAAACMhgfyD5IqxGFhEAAADAflozk0vvN0eU2ym/euR1Nc84T+sYbLlWd45/gNfLCnYAAAAAAAAAiGiwAwAAAAAAAEBAgx0AAAAAAAAAAjLY/0I2C7sZnTNTc0/I3/o7OVAAAADArnrP2ZS2Zx6lj97zhqXrIA97D0+6Tp4dQG9WsAMAAAAAAABAQIMdAAAAAAAAAAIa7AAAAAAAAAAQkME+yKf8kmveR2vWifyQZ9o5p/zJOU0rXxcAAACAd6Pnn2rnSWWy91F73q7n3XU4w+jrNnKOd+e5ceAMVrADAAAAAAAAQECDHQAAAAAAAAACGuwAAAAAAAAAEJDB3snIzI9SFpHMG2brPf5PHvM71w4AAAA82+h5jNpMdjKt1632uriO8G/mgOE8VrADAAAAAAAAQECDHQAAAAAAAAACGuwAAAAAAAAAEJDBPkjPzPXS6zJsSMj+XoPzDgAAAMBJaucdzVNSq9QDWX0MGfNwHivYAQAAAAAAACCgwQ4AAAAAAAAAAQ12AAAAAAAAAAjIYJ9AZjp3KI2z3XNrdiVvBwAAANiVeY1nWm0e8VM9q43J1erZxewx17uHYxzAeaxgBwAAAAAAAICABjsAAAAAAAAABDTYAQAAAAAAACAgg31DMtxJ1Oa6XMeVTK0xnEcAAACAn5n3/L33Oafd5vlK9fUcF6Vt154rY7afmnMpIx2YzQp2AAAAAAAAAAhosAMAAAAAAABAQIMdAAAAAAAAAAIy2AepyQCR48Jv9M6F6Z0/xM9qM6WcZwAAAGCW2vmi1u3Vvp+f9b5upe231nPVc2699v29xzh7ar2OejpwPivYAQAAAAAAACCgwQ4AAAAAAAAAAQ12AAAAAAAAAAh8fQsFGeJTxkbtKS/ldbiEjFAz7kaP0Z3vgd55OysfKwAAAPAso3OGzYMAO7o+Gz3L4DxWsAMAAAAAAABAQIMdAAAAAAAAAAIa7AAAAAAAAAAQ+DO7gFP1zNSQz8FP5LisqTZ7zHUDAAAAdmVeA6DMXD6cxwp2AAAAAAAAAAhosAMAAAAAAABAwE/E36T2Z6Nb+HmRZ2r9mZnSGP20vetr123V1tZSy+p2rh0AAAAAgDrmhOE8VrADAAAAAAAAQECDHQAAAAAAAAACGuwAAAAAAAAAEJDB3smdGevwetXnnrduv+W9rbXJqAEAAAAAYEfX+XDz3bA/K9gBAAAAAAAAIKDBDgAAAAAAAAABDXYAAAAAAAAACMhgv4lMDUZbeYytXBsAAAAAwGlm537P3v9KnnzscCor2AEAAAAAAAAgoMEOAAAAAAAAAAENdgAAAAAAAAAIyGAfRKYGAAAAAMAzXfOna/WcX16plp+01Ne7ttXPVYvZmeiz9z/Tk48dTmUFOwAAAAAAAAAENNgBAAAAAAAAIKDBDgAAAAAAAAABGewAAAAAAHRXyrM+KYe4Nbu7tL2aczW6lqva69izvtZs65WuG+cyDuA8VrADAAAAAAAAQECDHQAAAAAAAAACGuwAAAAAAAAAEJDB3sk1Q0PWCgAAAADAmUbny1+333O++e6c8pUy3He+bk9Se95K/3/2dZi9f6A/K9gBAAAAAAAAIKDBDgAAAAAAAAABDXYAAAAAAAAACMhgv0lrTk0N+R0AAAAAwN1q50DlEvfz6dyfdl7fj0fm+Tk+jeHWZ0vp9dHjxDiE81jBDgAAAAAAAAABDXYAAAAAAAAACGiwAwAAAAAAAEBABnsnpUwPGRvwDNd7vTYfCAAAAOAUpTnRnfOzV6tttXo+2anWk602b9lzXKzWr9np2QZkrGAHAAAAAAAAgIAGOwAAAAAAAAAENNgBAAAAAAAAICCDfRAZGvBMq2UXAQAAAIwyeh7kSbnF5pTg91bLXF9t/0B/VrADAAAAAAAAQECDHQAAAAAAAAACGuwAAAAAAAAAEJDBDgAAAADA7a65xE/KIa891pEZzivVwn1GX8eR9/PqmetX13pXqw+oZwU7AAAAAAAAAAQ02AEAAAAAAAAgoMEOAAAAAAAAAAEZ7IPI1AAAAAAATjI69/ikTPaVcs1XquX1MnfO+mqfdbtlwgPtrGAHAAAAAAAAgIAGOwAAAAAAAAAENNgBAAAAAAAAICCD/SZ35gXJ8wAAAAAA7jZ6DnTl7O6Vcs5XqgV6WC3jvPYeW/nZBfyOFewAAAAAAAAAENBgBwAAAAAAAICABjsAAAAAAAAABGSwAwAAAADQ7JorXModbn19ptUyoT9ZqZYePp370rGWxhhrmH1/tW7fuILzWcEOAAAAAAAAAAENdgAAAAAAAAAIaLADAAAAAAAAQODr+7QAFoCF9M7b8cgGAAAAmG92xvJKWeK181Uja12pltdr7lze7Bzz2v3vNIZLZp97YDwr2AEAAAAAAAAgoMEOAAAAAAAAAAENdgAAAAAAAAAI/JldwKquGRknZWKcfGwwW21W0EpZQwAAAAAwWs/5sNa57d5zcyvPtc+urbT/T6+ffF2APVnBDgAAAAAAAAABDXYAAAAAAAAACGiwAwAAAAAAAEBABjvAjVqyhgAAAABYw2pzOKvVU2Ol2leqpdXsY+m5/9nHAnBlBTsAAAAAAAAABDTYAQAAAAAAACCgwQ4AAAAAAAAAARnsoa+vr9klAAAAAAAAADCRFewAAAAAAAAAENBgBwAAAAAAAICAn4gHgMOUYk2+v79vqgQAAAAAns1cHJzHCnYAAAAAAAAACGiwAwAAAAAAAEBAgx0AAAAAAAAAAjLY/0ImBgCnes9o93kHAABA6v3vyRn8DQvs6Prs9CyD/VnBDgAAAAAAAAABDXYAAAAAAAAACGiwAwAAAAAAAEBABjsAbG52Bh4AAABnWu3vTTnGkCvdv6Pvn9n7X8mTjhWewgp2AAAAAAAAAAhosAMAAAAAAABAQIMdAAAAAAAAAAIy2AFgM7UZeNecp/f3y68DAADgt2ZnOJ9kpbzq0bX0vK69z0vvMWeehdfL/BucyAp2AAAAAAAAAAhosAMAAAAAAABAQIMdAAAAAAAAAAIy2AFuJG+H32jN/3pSZh0AAADsYKW/1Veq5fUqz5e919s619aaN7/auWNN5oDhPFawAwAAAAAAAEBAgx0AAAAAAAAAAhrsAAAAAAAAABCQwQ5wI3k7JGrzu3rmi7VmlwEAAAD/68lZ3a0555/+/3XbpXmNkbX8ph5+dvf9Mvq6GAdwHivYAQAAAAAAACCgwQ4AAAAAAAAAAQ12AAAAAAAAAAjIYAeAzT05xw0AAAB2VJsN3pN5BLiXzHU4jxXsAAAAAAAAABDQYAcAAAAAAACAgAY7AAAAAAAAAARksAN0NDM/i+dqyXEyRgEAAKC/lf7eLtViPuuZVr7OrZnltWN+tGs9Mtlhf1awAwAAAAAAAEBAgx0AAAAAAAAAAhrsAAAAAAAAABCQwd7JapkewBwrZxdxjp6fKXLWAAAA+C25wv9YaX54pVrgDquP+dn7B/qzgh0AAAAAAAAAAhrsAAAAAAAAABDQYAcAAAAAAACAgAz2m9Rk2srjgH3Js6aHO8eRMQoAAEAv/sb8x0pzvCvVwjpGj4uZ81mrjflrvavVB9Szgh0AAAAAAAAAAhrsAAAAAAAAABDQYAcAAAAAAACAgAz2TmoyM0r5ILXZJPI6YB2yxuih9+cEAAAA/EZp3rGUKzz69Znu/tu99lzdWcvVSteJMxhzwGqsYAcAAAAAAACAgAY7AAAAAAAAAAQ02AEAAAAAAAAgIIN9gto8EJntsI+a/Cv4m5njyGcEAAAAqdLfkKNf5x/v5+ru+SjXCYCnsYIdAAAAAAAAAAIa7AAAAAAAAAAQ0GAHAAAAAAAAgIAM9gWNzsi5bl9GDvQjc50Rap/TnvMAAAAwVu+/tUtzSjX7a62tZy0//f/r9mvnMT7VV3rvnbXwe73HIEBvVrADAAAAAAAAQECDHQAAAAAAAAACGuwAAAAAAAAAEJDBfpOeWSy9M3Rk9UI/pRwnuIPnOAAAALCrO+fTajPZW7fP39Wc695jxJwuUMsKdgAAAAAAAAAIaLADAAAAAAAAQECDHQAAAAAAAAACX99CQLpoyeS4+xKUajUk4PfcXwAAAADwe+bXmG10BrsxDPuzgh0AAAAAAAAAAhrsAAAAAAAAABDQYAcAAAAAAACAwJ/ZBTzFSpkaK9UCp7neX6W8nuvr7k8AAAAAnsz8GLO1jsHRGe7AfFawAwAAAAAAAEBAgx0AAAAAAAAAAhrsAAAAAAAAABCQwd7JzFwYGc6wj9pM9iv3NwAAAAAAwDxWsAMAAAAAAABAQIMdAAAAAAAAAAJ+Ir6T0s86v/MTz8D/8zwAAAAAAADYhxXsAAAAAAAAABDQYAcAAAAAAACAgAY7AAAAAAAAAARksE9wzWuXwQzP4X4HAAAAAADYlxXsAAAAAAAAABDQYAcAAAAAAACAgAY7AAAAAAAAAARksN/kPXf5msEukx0AAAAAAABgfVawAwAAAAAAAEBAgx0AAAAAAAAAAhrsAAAAAAAAABCQwT7BNWO9lMleej8AAAAAAAAA41nBDgAAAAAAAAABDXYAAAAAAAAACGiwAwAAAAAAAEBABvsCSpnsV6XXAQD42ezvUdfvfQAAAADAXuQ+bPAAACAASURBVKxgBwAAAAAAAICABjsAAAAAAAAABDTYAQAAAAAAACAgg31BpWzO2dmhAAC7un7Puvt71XV/MtkBAAAAYC9WsAMAAAAAAABAQIMdAAAAAAAAAAIa7AAAAAAAAAAQkMHeyZ35mbOzQwEAduV7EwAAAADQwgp2AAAAAAAAAAhosAMAAAAAAABAQIMdAAAAAAAAAAIy2DdwzQq9ZrDfmf8OfCbbF2Bt1+9Npe9Ztc/11vcDAAAAAGuzgh0AAAAAAAAAAhrsAAAAAAAAABDQYAcAAAAAAACAgAz2QT7lbZYy00tZnaXXZbLDPLJ3AdbW+3vW9f977gMAAADA2axgBwAAAAAAAICABjsAAAAAAAAABDTYAQAAAAAAACAgg72Tllz01kx1WZ8AAJlShvrs7QEAAAAAa7OCHQAAAAAAAAACGuwAAAAAAAAAENBgBwAAAAAAAICADPYDXbM/SxnuAABPISMdAAAAAGhhBTsAAAAAAAAABDTYAQAAAAAAACCgwQ4AAAAAAAAAARnsC5KZDgAwxvV7Vm0muwx3AAAAAHg2K9gBAAAAAAAAIKDBDgAAAAAAAAABDXYAAAAAAAAACMhgn2B0dqcMd5hHNi/A2jynAQAAAIAWVrADAAAAAAAAQECDHQAAAAAAAAACGuwAAAAAAAAAEJDB3sk19/ya79kz71N2KKyr9CwAYK7rc7rk+hz/P/bubbltXAsCaFSV//9lnac5o2AcoSFcSEBrPUXl6GaTNoGura79nm/9OgAAAACwFxPsAAAAAAAAABAQsAMAAAAAAABAQMAOAAAAAAAAAAEd7JO869/s7f6sPRcAAGPUrrN6vw4AAAAA7MUEOwAAAAAAAAAEBOwAAAAAAAAAEBCwAwAAAAAAAEBAB/siPf2bujsBAAAAAAAArmeCHQAAAAAAAAACAnYAAAAAAAAACAjYAQAAAAAAACCgg/0vHo/H26/XetFr959JZzsAAAAAAADAeCbYAQAAAAAAACAgYAcAAAAAAACAgI+IH+TKj4QHAAAAAAAAYD4T7AAAAAAAAAAQELADAAAAAAAAQEDADgAAAAAAAAABHex/8Xw+p/5/AAAAAAAAAPZigh0AAAAAAAAAAgJ2AAAAAAAAAAgI2AEAAAAAAAAgoIN9kcfj8f9/t/a1v973J/rf+UntuGnVc5zd6bUAAAAAAADAp0ywAwAAAAAAAEBAwA4AAAAAAAAAAQE7AAAAAAAAAAR0sE8yunO65bn0U3+n1mOuPE5q9285zu70WgAAAAAAAGAUE+wAAAAAAAAAEBCwAwAAAAAAAEBAwA4AAAAAAAAAAR3sg9Q6o3s6omv3Xdn3zn2MPuZae9B71F7bytcCAAAAAAAAKRPsAAAAAAAAABAQsAMAAAAAAABAQMAOAAAAAAAAAAEd7Acq+6p7+t9hhN5jUCc7AAAAAAAAd2CCHQAAAAAAAAACAnYAAAAAAAAACAjYAQAAAAAAACCggx021dtrfpKyk933BgAAAAAAgBlMsAMAAAAAAABAQMAOAAAAAAAAAAEBOwAAAAAAAAAEdLAPUnY+l53QK+mf5hO1Y9Zxlbny3AcAAAAAoI89XqDGBDsAAAAAAAAABATsAAAAAAAAABAQsAMAAAAAAABAQAf7Ijo7uFrrMahz/TPl9825DwB8k5XXPq5XAQCAHVi7wHlMsAMAAAAAAABAQMAOAAAAAAAAAAEBOwAAAAAAAAAEdLBP8q5To7eXUF8HCZ3r91T+XGqd7X4uAMCdrexcrz236yYAAGCE3rVFuVaxdoHzmGAHAAAAAAAAgICAHQAAAAAAAAACAnYAAAAAAAAACOhgv4B+DWao9V9eedzN7pjZ+Zyq/dz08wAA/Mx1EQAAAHAFE+wAAAAAAAAAEBCwAwAAAAAAAEBAwA4AAAAAAAAAAR3ssKk7d66PVnuvOyt/TjrXAQAyrpsAAACAK5hgBwAAAAAAAICAgB0AAAAAAAAAAgJ2AAAAAAAAAAjoYIdDze4tf9dxWesV731tO/dr1l77zu8NAPg+teu+mY/tugkAAAC4ggl2AAAAAAAAAAgI2AEAAAAAAAAgIGAHAAAAAAAAgIAOdtjUzL7L0Xpf6079mnf+OQAAjNZz7VO7xqs9tk52AAAA4Aom2AEAAAAAAAAgIGAHAAAAAAAAgICAHQAAAAAAAAACOtjhEDt1Tu70WlvV+uZ1hQIAjOE6CgAAALiCCXYAAAAAAAAACAjYAQAAAAAAACAgYAcAAAAAAACAgA52gIHKjvWSrlAA4CTltU3tWujd/229Tuq9PwAAAMAnTLADAAAAAAAAQEDADgAAAAAAAAABHxEPMFDtY1J9lCkAcJKWj4Qf/ViuowAAAIArmGAHAAAAAAAAgICAHQAAAAAAAAACAnYAAAAAAAAACOhgH2Rk9+BougnhPpyPAMBJymubleui8rlcZwEAAAArmGAHAAAAAAAAgICAHQAAAAAAAAACAnYAAAAAAAAACOhgH2Rl31+t11D3INyXrlAA4GSubQAAAIDTmWAHAAAAAAAAgICAHQAAAAAAAAACAnYAAAAAAAAACOhg31DZa1h2Out4huuU5x8AAAAAAADnMMEOAAAAAAAAAAEBOwAAAAAAAAAEBOwAAAAAAAAAEBCwAwAAAAAAAEBAwA4AAAAAAAAAAQE7AAAAAAAAAAQE7AAAAAAAAAAQ+H31CwA4yfP5/OP24/G46JUAAAAAAAAwmgl2AAAAAAAAAAgI2AEAAAAAAAAgIGAHAAAAAAAAgIAO9knK3uXXXubZncxlBzSwjs51AAAAAACAc5lgBwAAAAAAAICAgB0AAAAAAAAAAgJ2AAAAAAAAAAjoYF9ELzN8h+fz+cdt5z4AAAAAAMA5TLADAAAAAAAAQEDADgAAAAAAAAABATsAAAAAAAAABHSwT1L2MAPfQec6AACwQuvawz4FAADAGCbYAQAAAAAAACAgYAcAAAAAAACAgIAdAAAAAAAAAAI62Acpu890m8F3Ks99vxsAAIARWjvXa/e3NgEAAPiMCXYAAAAAAAAACAjYAQAAAAAAACAgYAcAAAAAAACAgA72vxjdbXYlvWoAAACwl9Z9hXLtX7u/TnYAAIDPmGAHAAAAAAAAgICAHQAAAAAAAAACAnYAAAAAAAAACOhg/4vW7rI70ZsG96XnEAAA+EnvvsPo+1urAAAA/MwEOwAAAAAAAAAEBOwAAAAAAAAAEBCwAwAAAAAAAEBAB3uot3vstctMjxmcq7f3EAAA4CflXkKtM7316wAAjOG6C85ngh0AAAAAAAAAAgJ2AAAAAAAAAAgI2AEAAAAAAAAgoIN9kZm967X+Dp3vsI5+HQAAYIXaWt9eAADANewJw/lMsAMAAAAAAABAQMAOAAAAAAAAAAEBOwAAAAAAAAAEdLAvonMDvoNzHQAAmKFca7R2rNfWKjrbAQAAMibYAQAAAAAAACAgYAcAAAAAAACAgIAdAAAAAAAAAAI62Ce5sodZbxpcpzz/ensSAQAAfnLlvgMAAMA3M8EOAAAAAAAAAAEBOwAAAAAAAAAEBOwAAAAAAAAAENDBvsi73uXejma9a3AftfNRJzsAAAAAwLnKPV8ZDpzHBDsAAAAAAAAABATsAAAAAAAAABDwEfGDjPyIj9EfGe8jqGEdH/8DAADM0Lu2V2cFALCGPWE4nwl2AAAAAAAAAAgI2AEAAAAAAAAgIGAHAAAAAAAAgIAO9kH0LgO/fjn3AQCAOWavNXSuAwAAZEywAwAAAAAAAEBAwA4AAAAAAAAAAQE7AAAAAAAAAAR0sC/y2pVW9prpb4dz1M5nvYYAAMBPWtcKrXsH1iIAAABjmGAHAAAAAAAAgICAHQAAAAAAAAACAnYAAAAAAAAACOhgn+RdD3NrJ7NeNTiHTnYAAAAAAIB9mWAHAAAAAAAAgICAHQAAAAAAAAACAnYAAAAAAAAACOhgX6SlZ1knM5zL+Q0AAHzi8Xi8/Xq51ij/f3nb2gQAAOAzJtgBAAAAAAAAICBgBwAAAAAAAICAgB0AAAAAAAAAAjrYJ9FtBvzE7wYAAGCFWic7AAAAnzHBDgAAAAAAAAABATsAAAAAAAAABATsAAAAAAAAABDQwb5IT9eZjmbYh15DAABghNlri/Lx7T0AAABkTLADAAAAAAAAQEDADgAAAAAAAAABATsAAAAAAAAABHSwT9LSXVbrVWvtXdObBtcpzz+d7AAAwAyj1/462QEAADIm2AEAAAAAAAAgIGAHAAAAAAAAgICAHQAAAAAAAAACOthvoNZr1trhrDcNrqNzHQAAWMHaAwAA4Bom2AEAAAAAAAAgIGAHAAAAAAAAgICAHQAAAAAAAAACOtgvMLsnTec6XKc8/8rz3fkJAAAkWtcWrXsN1iYAAACfMcEOAAAAAAAAAAEBOwAAAAAAAAAEBOwAAAAAAAAAENDBPklPz7oeNNhX7dzXyQ4AAHyitnawtgAAAFjDBDsAAAAAAAAABATsAAAAAAAAABAQsAMAAAAAAABAQAc7wEBl76HOdQAAAAAAgHOYYAcAAAAAAACAgIAdAAAAAAAAAAICdgAAAAAAAAAIPJ4KgZcoe5hH8iOE+2g9152/AAAAAADnKveM7QnD/kywAwAAAAAAAEBAwA4AAAAAAAAAAQE7AAAAAAAAAAR0sG+gt7/djxiuo18HAAAAAOB71DIde8SwPxPsAAAAAAAAABAQsAMAAAAAAABAQMAOAAAAAAAAAIHfV78A+jvWgfuonc862QEAAAAAAPZlgh0AAAAAAAAAAgJ2AAAAAAAAAAgI2AEAAAAAAAAgoIN9kpG96jqaYR/l+apzHQAAANYbuTfXytofAOBsJtgBAAAAAAAAICBgBwAAAAAAAICAgB0AAAAAAAAAAjrYL6CHCc5V63jTyQ4AAADXe12P19bqV/a5A7Aff0fgfCbYAQAAAAAAACAgYAcAAAAAAACAgI+IX8THQMN3qH38j98FAAAAsN679Xhtre6jfgFo4e8EnM8EOwAAAAAAAAAEBOwAAAAAAAAAEBCwAwAAAAAAAEBABzvAQjrZAQAAYG862QEAvpsJdgAAAAAAAAAICNgBAAAAAAAAICBgBwAAAAAAAICADvZFXruYdC7D93L+AwAAwN50rgMAfDcT7AAAAAAAAAAQELADAAAAAAAAQEDADgAAAAAAAAABHewXWN3TpPMZ7qM8/52fAAAAsJdyLa+THQDgu5hgBwAAAAAAAICAgB0AAAAAAAAAAgJ2AAAAAAAAAAjoYL+h3h4nnc5wX85PAAAAWK/cX3u3Pq/9X53rAADfzQQ7AAAAAAAAAAQE7AAAAAAAAAAQELADAAAAAAAAQEAH+yQje5Z1NsM5WjrfAAAAgDlaetR1rgMA8MoEOwAAAAAAAAAEBOwAAAAAAAAAEBCwAwAAAAAAAEBAB/sN1HqcdDSzwspu8N7uMucEAAAA8M7IvYOVeyYAjOf3ODCaCXYAAAAAAAAACAjYAQAAAAAAACAgYAcAAAAAAACAgA72RXo7p1seS38IiZHH5Orn2rkzZ6fXCgAAAFjLA+ymth+9cm8cOJMJdgAAAAAAAAAICNgBAAAAAAAAICBgBwAAAAAAAICADvZJ3nV41HqbWjvWy/+/cz8149y5R6b3mNz5mN/ptQIAAAAA7KaWoYz+eunOe/PAGCbYAQAAAAAAACAgYAcAAAAAAACAgIAdAAAAAAAAAAI62BeZ2bNc6wPhO13ZA+MYzF39vdIBDwAAAACcrLYH2vt14PuYYAcAAAAAAACAgIAdAAAAAAAAAAICdgAAAAAAAAAI6GAHGOjqTnUAAAAAAADmMcEOAAAAAAAAAAEBOwAAAAAAAAAEBOwAAAAAAAAAENDBvshrL/Pz+Zz22MC1yvO7dn6O/n0AAAAAAADAPCbYAQAAAAAAACAgYAcAAAAAAACAgIAdAAAAAAAAAAI62C/Q2pne+v91OgMAAAAAAKxXZjStGQ9wfybYAQAAAAAAACAgYAcAAAAAAACAgIAdAAAAAAAAAAI62Cd514M+um9D5zoAAAAAAMD1dK7D+UywAwAAAAAAAEBAwA4AAAAAAAAAAQE7AAAAAAAAAAR0sF9AZzqcS78OAAAAAMC+7PECNSbYAQAAAAAAACAgYAcAAAAAAACAgIAdAAAAAAAAAAI62CcpOzpW9q5f+dzw69d/j7nymDz5GK29dwAAAAAA7sseL1Bjgh0AAAAAAAAAAgJ2AAAAAAAAAAgI2AEAAAAAAAAgoIN9kFoHx+vXa/0dvV+H3fQewyd1uJ/cTw8AAAAAsJvePVoZDpzHBDsAAAAAAAAABATsAAAAAAAAABB4PH3+cGTnj/DwIyZx5UeTt55fOx3Ts3937PS9AAAAgB2obwNgJH9X4Dwm2AEAAAAAAAAgIGAHAAAAAAAAgICAHQAAAAAAAAACOtgn0akB/PpV72Avfzf43QEAAABr1dbuJWt1AN5p3RMG9mOCHQAAAAAAAAACAnYAAAAAAAAACAjYAQAAAAAAACDw++oXcCodGsAn/O4AAACA+Vp719/d11oeAOC7mGAHAAAAAAAAgICAHQAAAAAAAAACAnYAAAAAAAAACOhgv0BPx9Mn9EABAAAAQKbcS1u9lwfA3vwdgfOZYAcAAAAAAACAgIAdAAAAAAAAAAICdgAAAAAAAAAI6GCfRKcGAAAAANzDu726siu39vXyscrbtccD4Lv5uwH7M8EOAAAAAAAAAAEBOwAAAAAAAAAEBOwAAAAAAAAAENDBfgF9GgAAAAAAAPdXdqb3khHB/kywAwAAAAAAAEBAwA4AAAAAAAAAAQE7AAAAAAAAAAR0sC+iUwMAAAAA7md0t275ePYFAXjl7wTszwQ7AAAAAAAAAAQE7AAAAAAAAAAQELADAAAAAAAAQEAHOwAAAADAILp0Ac7S+3td5zqcxwQ7AAAAAAAAAAQE7AAAAAAAAAAQELADAAAAAAAAQEAH+yKvHRv6NYB/lP07rfw+AQAAgDrrZwDuQic77M8EOwAAAAAAAAAEBOwAAAAAAAAAEBCwAwAAAAAAAEBAB/sFejuXW+nvgHM4nwEAAAAA9mWPF/Zngh0AAAAAAAAAAgJ2AAAAAAAAAAgI2AEAAAAAAAAgoIMd4EL6dgAAAAAAvsfj8fjjtj1i2I8JdgAAAAAAAAAICNgBAAAAAAAAICBgBwAAAAAAAICADvZJdGYAAAAAAADwSn4E+zPBDgAAAAAAAAABATsAAAAAAAAABATsAAAAAAAAABDQwQ4AAAAAAAALPB6PP27rZIf9mGAHAAAAAAAAgICAHQAAAAAAAAACAnYAAAAAAAAACOhgD5WdGKWyI6P2/1fS3wEAAAAAAHA9mQ3szwQ7AAAAAAAAAAQE7AAAAAAAAAAQELADAAAAAAAAQEAH+4dqHRktnez6NgAAAAAAAO7vXd7zyf1lRLAfE+wAAAAAAAAAEBCwAwAAAAAAAEBAwA4AAAAAAAAAAR3sod4ODB0aAAAAAAAAe+ntXC/Ji2B/JtgBAAAAAAAAICBgBwAAAAAAAICAgB0AAAAAAAAAAjrYAQAAAAAA4Ae9nellh3t5Wyc77McEOwAAAAAAAAAEBOwAAAAAAAAAEPAR8QAXKj8OqJWPDwIAAAAA2Ic9XdifCXYAAAAAAAAACAjYAQAAAAAAACAgYAcAAAAAAACAgA52AAAAAAAAWODxePxxWyc77McEOwAAAAAAAAAEBOwAAAAAAAAAEBCwAwAAAAAAAEBABzvAhfTrAAAAAAB8D3vCsD8T7AAAAAAAAAAQELADAAAAAAAAQEDADgAAAAAAAAABHewAAAAAAACwwOPx+OO2TnbYjwl2AAAAAAAAAAgI2AEAAAAAAAAgIGAHAAAAAAAAgICAHQAAAAAAAAACAnYAAAAAAAAACAjYAQAAAAAAACAgYAcAAAAAAACAwO+rX8AuHo/H268/n8+m/79S+doAAAAAAOATq/e+7W9zGsc07M8EOwAAAAAAAAAEBOwAAAAAAAAAEBCwAwAAAAAAAEBAB3uotRNDhwYAAAAAALtb3bkOpyvPKXkS7McEOwAAAAAAAAAEBOwAAAAAAAAAEBCwAwAAAAAAAEBABzsAAAAAADBF2S/d2umur5rTOIZhfybYAQAAAAAAACAgYAcAAAAAAACAgIAdAAAAAAAAAAI62EO1XpjeHpk70f8BAAAAAMAnavvLrXvp9qu52ui8p3w8xzjsxwQ7AAAAAAAAAAQE7AAAAAAAAAAQELADAAAAAAAAQEAHO/+h/wMAAAAAgDuwX81pHMOwPxPsAAAAAAAAABAQsAMAAAAAAABAQMAOAAAAAAAAAAEd7KHWToydOjTKDhsAAAAYYfZ6c/Xae+b7Gf1eVq71d9oDAWA++82cpvdapzwnytuupWA/JtgBAAAAAAAAICBgBwAAAAAAAICAgB0AAAAAAAAAAjrYL9DbrzG6n0O/B1ynt5PK+QsAwN20XOPWrmdrjzV6fdx6fd7yfLPfy8zXXnsuPaIAADnXSrA/E+wAAAAAAAAAEBCwAwAAAAAAAEBAwA4AAAAAAAAAAR3si/T2LPc8tj4POIfzGQCAu3m3Ju29fm3taJ/dBd7zeOV9Z+4TJM8/8rF0sgMwk78jnMa1EuzPBDsAAAAAAAAABATsAAAAAAAAABAQsAMAAAAAAABAQAf7JCs76Fb3tgHj6NcBAOA0O13j1tbTM99L79r+ytcOwHfxNwXGck7B/kywAwAAAAAAAEBAwA4AAAAAAAAAAQE7AAAAAAAAAAR0sB9AJzsAAACr3GnNeVJ/5c7vpbYvUd7e+b0CAPRybQT7M8EOAAAAAAAAAAEBOwAAAAAAAAAEBOwAAAAAAAAAENDBDgAAANzC6H53fZYAANyNa1TYnwl2AAAAAAAAAAgI2AEAAAAAAAAg4CPiAQAAAAAAYIGyFslHxsN+TLADAAAAAAAAQEDADgAAAAAAAAABATsAAAAAAAAABHSwT1J2Zrx2apT9GgAAAEB//+TO6+3aa9+5m3Pn1w4AMJprI9ifCXYAAAAAAAAACAjYAQAAAAAAACAgYAcAAAAAAACAgA72RV47NWZ3wunvAAAAYJZyzXll7/nOneu9/BwAAPZUXjvJdGA/JtgBAAAAAAAAICBgBwAAAAAAAICAgB0AAAAAAAAAAjrYL6BPAwAAgFO9dkreff1b6zGf2Y9Z6y3vfS7dngAAAHOYYAcAAAAAAACAgIAdAAAAAAAAAAICdgAAAAAAAAAI6GA/kJ417qbWLTiaYx4AANZ512Pe2zN+9Vqi1sn+7r6l2e+l57Un9+95LQAA32T1NSywngl2AAAAAAAAAAgI2AEAAAAAAAAgIGAHAAAAAAAAgIAO9kl6etlGPhfsoNb1p78PAAD28Xr9Xluv9q5nR/aG9z5+63PPXue0fm90rgMA/EwGA5RMsAMAAAAAAABAQMAOAAAAAAAAAAEBOwAAAAAAAAAEHk9FWUv0dLLfrccNWtWO4ZOP2W9+7wAAAAAA30amA+czwQ4AAAAAAAAAAQE7AAAAAAAAAAQE7AAAAAAAAAAQ+H31C/gWrx0aZf+GPg6+jWP4X+X573sDAAAAALCvco+3NQMC7s8EOwAAAAAAAAAEBOwAAAAAAAAAEBCwAwAAAAAAAEBAB/sFWvs3dDJzmtGdMyedI63fm5PeOwAAAADA6ezpwv5MsAMAAAAAAABAQMAOAAAAAAAAAAEBOwAAAAAAAAAEdLDfQK2Tvbytn4PTtB7T33yOnPzeAAAAAABO90372XAqE+wAAAAAAAAAEBCwAwAAAAAAAEBAwA4AAAAAAAAAAR3sobIT40qtr0V/B1cbfQyWj3en87OV8xMAAAAA4HvYE4b9mWAHAAAAAAAAgICAHQAAAAAAAAACAnYAAAAAAAAACOhgD+nEgH2Uneyt52/v/QEAAAAA4Cf2n2F/JtgBAAAAAAAAICBgBwAAAAAAAICAgB0AAAAAAAAAAjrYgelWd8r0Pr7OGwAAAAAAZrD/DPszwQ4AAAAAAAAAAQE7AAAAAAAAAAQE7AAAAAAAAAAQ0MF+gbKPuqbs46jdX38Hd9fbyd56DgEAAHuorRV61xKjXw8AALRyjQn7M8EOAAAAAAAAAAEBOwAAAAAAAAAEBOwAAAAAAAAAENDBvsjIzuhaB53+DnbTe344xgEA2NnI9eJpat+b1d+7d89nXQIAAPAdTLADAAAAAAAAQEDADgAAAAAAAAABATsAAAAAAAAABHSwT9LTy9baIVfrZIer9R7zugwBADjJ1Wu23jVky/1HP9dqV/+sAAAAuB8T7AAAAAAAAAAQELADAAAAAAAAQEDADgAAAAAAAAABHewbKDvfWjvoeu8PszkmAQDgX6uvj3ufr+X+u13793bIAwAAcB4T7AAAAAAAAAAQELADAAAAAAAAQMBHxAMAAMCNqPkCAACA+zLBDgAAAAAAAAABATsAAAAAAAAABATsAAAAAAAAABDQwT5J2ZFXduiNVHtsfX0AAAD7sIYDAACA+zLBDgAAAAAAAAABATsAAAAAAAAABATsAAAAAAAAABDQwX6B3j72mX3uAAAAXKtc8+lkBwAAgPswwQ4AAAAAAAAAAQE7AAAAAAAAAAQE7AAAAAAAAAAQ0MG+yLvOvN5OdX18AAAA57DGu4/e9ToAAPtzTQiUTLADAAAAAAAAQEDADgAAAAAAAAABATsAAAAAAAAABHSw34B+PQAAAP5RdjxaM16n/N7r3wQAAMAEOwAAAAAAAAAEBOwAAAD8j707WHIcRYAAWo6o//9l72Fjtt1MrUgKEEh67zQT7pKRbbDsDJwAAAAABATsAAAAAAAAABDQwX6Sz5622f15tU44/X0AAAD78pltHzrXAQDovT53TQn3Ywc7AAAAAAAAAAQE7AAAAAAAAAAQELADAAAAAAAAQEAH+y/1dGbo1kKlPQAAIABJREFU2wD+0bse6OcEALie8hquvCYs/9813zq15woAAIDnsYMdAAAAAAAAAAICdgAAAAAAAAAICNgBAAAAAAAAIKCD/QH09QEAAOyj1uPtMxwAAADsyw52AAAAAAAAAAgI2AEAAAAAAAAgIGAHAAAAAAAAgIAO9l+qdeIdderp0wP+YT0AAKBUfp50zbgvzw0AAMDz2MEOAAAAAAAAAAEBOwAAAAAAAAAEBOwAAAAAAAAAENDBPokeNgAAgHlqPeU795jXxlo6+1x77+/z9p6/HXF7afTxjs4VAACAe7KDHQAAAAAAAAACAnYAAAAAAAAACAjYAQAAAAAAACDweisJO12tw62XpxT20doBCQAw0uzPHsAfru0BAPiJ74jhfuxgBwAAAAAAAICAgB0AAAAAAAAAAgJ2AAAAAAAAAAh8rx7AU4zsPiz7OMpjl/+vvwMAAOBcLZ/Dap/hWm9v1fqZ8czPt6Mfi5XnCgAAwD3YwQ4AAAAAAAAAAQE7AAAAAAAAAAQE7AAAAAAAAAAQeL0VdJ/is7et9pD3dsaN7pwDfs98BADO1NoX7VoE2tQ64AEAoOQ7YrgfO9gBAAAAAAAAICBgBwAAAAAAAICAgB0AAAAAAAAAAt+rB3BXrd2HAAAAvcruPn3RMNfnHDO/AAAAnsEOdgAAAAAAAAAICNgBAAAAAAAAICBgBwAAAAAAAICADnYAAICbKDvXa7frjAYAAABoYwc7AAAAAAAAAAQE7AAAAAAAAAAQELADAAAAAAAAQEAH+yRll+Fn1+Ho3sNaz6JeRQAAeIajzyE/3Q4AAABAGzvYAQAAAAAAACAgYAcAAAAAAACAgIAdAAAAAAAAAAI62E/y2XVY9iDWOtRLOtcBAICf1D4r6GQHAAAA6GMHOwAAAAAAAAAEBOwAAAAAAAAAEPAT8QvUfobRT8ADAAC/UX5W8JPwAAAAAGPZwQ4AAAAAAAAAAQE7AAAAAAAAAAQE7AAAAAAAAAAQ0MG+Ib2IAADAb5Sd67XbffYAAAAAaGMHOwAAAAAAAAAEBOwAAAAAAAAAEBCwAwAAAAAAAEBAB/sv1boNd6JXEQAAnqG89r/S5xYAAACAK7CDHQAAAAAAAAACAnYAAAAAAAAACAjYAQAAAAAAACCggz105e7Ccuw62QEA4J6u/LkFAAAA4ArsYAcAAAAAAACAgIAdAAAAAAAAAAICdgAAAAAAAAAI6GAP9faWH3Uhzjz2iOMD85Tz13wFAHqU1xKuNQAAAADGsoMdAAAAAAAAAAICdgAAAAAAAAAICNgBAAAAAAAAIKCDfYHRvYe1nkW9i7Av8xEAaFG7ti9v7/37mdcqvWOZffvM8a4+19LM+xs9VgAAAFjNDnYAAAAAAAAACAjYAQAAAAAAACAgYAcAAAAAAACAwOutAHiKo9642Q95a78eMI/5CMBd6UkG+JtrewCAe5r9+dd1JFyPHewAAAAAAAAAEBCwAwAAAAAAAEBAwA4AAAAAAAAAge/VAwAAAIDZyl7DskexdnvteDWfx2sdC+vM7tsEAADgeuxgBwAAAAAAAICAgB0AAAAAAAAAAgJ2AAAAAAAAAAi83srdTnHU29b7FIzuBgTGMT8BuCvvccATzfxsDwDAPfn8DPdjBzsAAAAAAAAABATsAAAAAAAAABAQsAMAAAAAAABA4Hv1AJ7is0Oj7Nuo9W8A99U7//XzAHAW16wAAAAAYAc7AAAAAAAAAEQE7AAAAAAAAAAQELADAAAAAAAAQEAH+wI6kwEAuJryGrbsZHeNCwAAAMAT2MEOAAAAAAAAAAEBOwAAAAAAAAAEBOwAAAAAAAAAENDBDrCQvloArqLsXK/d7j0OAAAAgDuygx0AAAAAAAAAAgJ2AAAAAAAAAAgI2AEAAAAAAAAgoIMdAACoKjvVda4DAAAA8ER2sAMAAAAAAABAQMAOAAAAAAAAAAEBOwAAAAAAAAAEdLADAABVZed67Xad7AAAAADckR3sAAAAAAAAABAQsAMAAAAAAABAQMAOAAAAAAAAAAEd7AAAQFXZqa5zHQAAAIAnsoMdAAAAAAAAAAICdgAAAAAAAAAICNgBAAAAAAAAIKCDHWAh/bUAXEX5nlW73XsaAAAAAHdkBzsAAAAAAAAABATsAAAAAAAAABAQsAMAAAAAAABAQAc7wEL6aQG4ivI9S+c6AAAAAE9kBzsAAAAAAAAABATsAAAAAAAAABDwE/EnKX9Cc2d+3hPO4+d1AbiK2vWs9zQAAAAAnsAOdgAAAAAAAAAICNgBAAAAAAAAICBgBwAAAAAAAICADnb+RX8mnMf8AuAqyvcs14zAP3rWg/Jva2prEQAAAMxmBzsAAAAAAAAABATsAAAAAAAAABAQsAMAAAAAAABAQAf7Bkb3Vfb2Yeqwg/PorwX4t5ZrkdYu3qt3936Of7ex7zYeYJ2Z64G1BgAAgNXsYAcAAAAAAACAgIAdAAAAAAAAAAICdgAAAAAAAAAI6GBf4OyOZR3PsC/zEaCvT7f1b6/e3Xv18cOdlNdxtc9dn7fX/na0nrH23j762KUzzwUAAAC+vuxgBwAAAAAAAICIgB0AAAAAAAAAAgJ2AAAAAAAAAAi83gqApzjqadu9g11nO4zT2tlovgFPNHOtrB17ZS/x2Xp7jgHY67M+AADX0PrdBLA/O9gBAAAAAAAAICBgBwAAAAAAAICAgB0AAAAAAAAAAt+rB3BXK/s2V3Z7Am306wDU9ayVrX9b+/ezbz/TTmMBAACAp/rMdHxWh2uwgx0AAAAAAAAAAgJ2AAAAAAAAAAgI2AEAAAAAAAAgoIN9gbIjvbdTo9a5Xju+znYAAAAAAIDz6V2H67GDHQAAAAAAAAACAnYAAAAAAAAACAjYAQAAAAAAACCgg/0knx0aZef56A703r4OfR8AAAAAAAAA/2YHOwAAAAAAAAAEBOwAAAAAAAAAEBCwAwAAAAAAAEBAB/sCu3Wc7zYeAAAAAAAAgB3ZwQ4AAAAAAAAAAQE7AAAAAAAAAAQE7AAAAAAAAAAQ0MEOAAAAAAAAC7xer//99/v9XjgSIGUHOwAAAAAAAAAEBOwAAAAAAAAAEBCwAwAAAAAAAEBAB/sCn30aM+joAAAAAAAAABjPDnYAAAAAAAAACAjYAQAAAAAAACAgYAcAAAAAAACAgA72k7T0rrd2qJfHLv9fJzvsy3wFAAAAALiv8jvflrwI2JMd7AAAAAAAAAAQELADAAAAAAAAQEDADgAAAAAAAAABHewb6O1crvV36HiGfZmPAAAAAAD3pXMd7scOdgAAAAAAAAAICNgBAAAAAAAAICBgBwAAAAAAAICADvZfqnVmHPUqz+5crnWyA/so56dOdgAAAAAAgH3ZwQ4AAAAAAAAAAQE7AAAAAAAAAAQE7AAAAAAAAAAQ0MH+S7Wec73nwNdXfa3QuQ4AAAAA8Fy+I4brsYMdAAAAAAAAAAICdgAAAAAAAAAICNgBAAAAAAAAIKCDfZBaR8Zn7/LsDmb977CP2nzUyQ4A99dyfV5eC9SuFVpvBwAA4Fy1z2mf/+/7YbgGO9gBAAAAAAAAICBgBwAAAAAAAIDA6+33Jk7R87OQPcdKjgecx0/Cwzp+JhkAmMm1PQAACd8Rw/XZwQ4AAAAAAAAAAQE7AAAAAAAAAAQE7AAAAAAAAAAQ0MG+gdGdsJ5S2Efr/DZ/oY+edWYr1+lab9rOr8krnUvvWGffPnK8Z59Lq5HjWX0uNbs99uzhaP57jgEAnqH1Wr/l87RrSrgGO9gBAAAAAAAAICBgBwAAAAAAAICAgB0AAAAAAAAAAjrYASZq7WgF+ui0AgBm0sEOAEDL908J15FwPXawAwAAAAAAAEBAwA4AAAAAAAAAAQE7AAAAAAAAAAS+Vw/gKT47OfRpAP8o+3qsDzCP+QUAAAAAQC872AEAAAAAAAAgIGAHAAAAAAAAgICAHQAAAAAAAAACOtgX0LkMz1HO79r8tz4AAAAAAOyr9zvb8jtg4HrsYAcAAAAAAACAgIAdAAAAAAAAAAICdgAAAAAAAAAI6GDfgM5luK9an07v7dYLAAAAAIDr+vwO2Pe9cA12sAMAAAAAAABAQMAOAAAAAAAAAAEBOwAAAAAAAAAEdLBvqNa53EuHB5ynnG+z5zc8nTkHAAAAAMBMdrADAAAAAAAAQEDADgAAAAAAAAABATsAAAAAAAAABHSwn0TvOTxTa/+ztQL6HM258jbzDQAAAACAVnawAwAAAAAAAEBAwA4AAAAAAAAAAQE7AAAAAAAAAAR0sAMspAMaxirn1FEnOwAAAAAAtLKDHQAAAAAAAAACAnYAAAAAAAAACAjYAQAAAAAAACCgg32Qno5XHczwXOXaYT2APjrXAQAAAACYyQ52AAAAAAAAAAgI2AEAAAAAAAAgIGAHAAAAAAAAgIAO9l8a2fGqgxmey3yHsco59fkea74BAAAAANDLDnYAAAAAAAAACAjYAQAAAAAAACAgYAcAAAAAAACAgA72SVp6XssOdp3sAPA75Xvo0W3eXwEAAAAAaGUHOwAAAAAAAAAEBOwAAAAAAAAAEBCwAwAAAAAAAEBAB/sgelyB39AJDWOVc+hzjplfz9S7ztb+fvQ63nJ/rWMZfTsAAAAAPJEd7AAAAAAAAAAQELADAAAAAAAAQEDADgAAAAAAAAABHewAC+mEZnd36ly+07nwe72vg9rfj36dHR2vdyxnnwtwHeU16s7rQW2ss28HAADgeexgBwAAAAAAAICAgB0AAAAAAAAAAgJ2AAAAAAAAAAjoYAdYqNbxyB50bUKfM/tvZ3fpjj6XUsvxzu4dHm3luQJtrjSHamPtvR0AAADsYAcAAAAAAACAgIAdAAAAAAAAAAICdgAAAAAAAAAIvN4Kxn6l1tfZ8rCOPBawN52w19DbyQwAwD0dXSe6JgQAIOGaEq7PDnYAAAAAAAAACAjYAQAAAAAAACAgYAcAAAAAAACAwPfqAdxVa3/vWcf6+tLhAWeqzV+d7NfkeQIAAAAAgGeygx0AAAAAAAAAAgJ2AAAAAAAAAAj4ifhJjn4+2E9Cw3OU89v8v4ba8wYAACXX+gAAAM9gBzsAAAAAAAAABATsAAAAAAAAABAQsAMAAAAAAABAQAf7L/V0qelhg+eodXfradyTznUAAFq5lgcAAHgGO9gBAAAAAAAAICBgBwAAAAAAAICAgB0AAAAAAAAAAjrYASYqexh1rl9D7XkDAAAAAACeyQ52AAAAAAAAAAgI2AEAAAAAAAAgIGAHAAAAAAAAgIAOdoCJat3dOtn3pHMdAAAAAAD4iR3sAAAAAAAAABAQsAMAAAAAAABAQMAOAAAAAAAAAAEd7AATlZ3qOtevofa8AQAAAAAAz2QHOwAAAAAAAAAEBOwAAAAAAAAAEBCwAwAAAAAAAEBABzvARLXubp3se9K5DgAAAAAA/MQOdgAAAAAAAAAICNgBAAAAAAAAICBgBwAAAAAAAICADnaAicpOdZ3r11B73gAAAAAAgGeygx0AAAAAAAAAAgJ2AAAAAAAAAAgI2AEAAAAAAAAgoIMdYKJad7dO9j3pXAcAAAAAAH5iBzsAAAAAAAAABATsAAAAAAAAABAQsAMAAAAAAABAQAc7wERlp7rO9WuoPW+eR4B+tbX08/bW99PydgAAAAAYxQ52AAAAAAAAAAgI2AEAAAAAAAAgIGAHAAAAAAAAgIAOdoCJah2wurz3dHZ3b2uX8MjbW1+DK8f60+3AfRzN79b3U+A5XCsAAABwNjvYAQAAAAAAACAgYAcAAAAAAACAgIAdAAAAAAAAAAKvt8JfgGlaOyAtyXvS5Qnsoud9YvR7Unm80f8eAAAA7ujo87nPynANdrADAAAAAAAAQEDADgAAAAAAAAABATsAAAAAAAAABL5XDwAAdld2H9V6hGs9x73HG3l777FbrTxXeLrR86H1eOYjAAAAAHdgBzsAAAAAAAAABATsAAAAAAAAABAQsAMAAAAAAABA4PVWhggwTa2Lu2RJBgAAAAC4r6PvjH0/DNdgBzsAAAAAAAAABATsAAAAAAAAABAQsAMAAAAAAABA4Hv1AADurOzMae1kB+BYua6e3VXWuq7PHN9OY/n6Wjues18XtXPVoQcAAABwH3awAwAAAAAAAEBAwA4AAAAAAAAAAQE7AAAAAAAAAAR0sAMAcCmt3d473ffIru7RY+ntCZ/52OzeYV6Ob+VrlHsauXYAAAAAfexgBwAAAAAAAICAgB0AAAAAAAAAAgJ2AAAAAAAAAAjoYAcALksn7T3t1F89+jW2U095eazWTvbdHpuVrjx27sH7IQAAAJzHDnYAAAAAAAAACAjYAQAAAAAAACAgYAcAAAAAAACAgA52gIl0ssJY5hSzze4xHtmDfLdO5fJ8Pp+L1n74sx2NPXHm2rbbY0em9rzVXkO7zyEAAAC4EjvYAQAAAAAAACAgYAcAAAAAAACAgJ+IB5io9pOxfp4T/tb7M8nm1D30/hTymVrH0voanXmuvT9rvpPen8defe4j167V59Jj9divtPaUY219TbsmBQAAgN+zgx0AAAAAAAAAAgJ2AAAAAAAAAAgI2AEAAAAAAAAgoIMdYCL9l3BsdH/1mf24vfP1SmPlj97n7UrrfutYV55Lb//0ldXOZefX2NW0vs4AAACAe7KDHQAAAAAAAAACAnYAAAAAAAAACAjYAQAAAAAAACCggx1golpXp15UOLbzHLnSfL7SWK+m9bEsnwvPzRqzH+eZ3dx37lzvvW6q/fve+Tb7+D3Han3NXfl1AgAAAKvZwQ4AAAAAAAAAAQE7AAAAAAAAAAQE7AAAAAAAAAAQ0MEOsJDuXTjWOkda5lBvl+7ojuXeft2jv5/ZB/00vev07NfRSt7T5rhz53pN67mNfI9YcfyjY/WuFXd+nQAAAMDZ7GAHAAAAAAAAgICAHQAAAAAAAAACAnYAAAAAAAAACOhgB1hIHyZP19o7PrKLuLdLd3aX78j7s9Zc18rO9ju9bq50Lk/uXOf3vC4AAADgPHawAwAAAAAAAEBAwA4AAAAAAAAAAQE7AAAAAAAAAAR0sAMsVPas6s+Ev7X2T5tT7G5kh3rv6/3MPvde5jL8zZwAAACAdexgBwAAAAAAAICAgB0AAAAAAAAAAgJ2AAAAAAAAAAjoYAdYSH8mtKl1sptT9Kq9xlpfc2f2nNfGNnosrY/VSruvFS2P1eznkT15ngAAAGAfdrADAAAAAAAAQEDADgAAAAAAAAABATsAAAAAAAAABHSwAyy0eycs7M6cYbbZPeOtr+HPf1+779ax9c6n0Z3vI+e3teIPjwUAAABAHzvYAQAAAAAAACAgYAcAAAAAAACAgIAdAAAAAAAAAAKvtxI+gNPU+mgtyQAAAMBVlN9z+F4DoO7oO2LrKFyDHewAAAAAAAAAEBCwAwAAAAAAAEBAwA4AAAAAAAAAge/VAwAAAAAAYH9HvcEAAE9hBzsAAAAAAAAABATsAAAAAAAAABAQsAMAAAAAAABAQAc7AAD8Uq2D8v1+nzQSAAAAAOAMdrADAAAAAAAAQEDADgAAAAAAAAABATsAAAAAAAAABATsAAAAAAAAABAQsAMAAAAAAABAQMAOAAAAAAAAAAEBOwAAAAAAAAAEBOwAAAAAAAAAEBCwAwAAAAAAAEBAwA4AAAAAAAAAAQE7AAAAAAAAAAS+Vw8AAADu6vV6/fX/7/d70UjgesyfZyif55Ln/fc8tn/c+bG48rldaey7vSdd6bEDjpnPANdkBzsAAAAAAAAABATsAAAAAAAAABAQsAMAAAAAAABAQAc7AMCGdut5/LTT2Hbvq1t9/3AltfnMM1g3oU05Z6ylAAAwnx3sAAAAAAAAABAQsAMAAAAAAABAQMAOAAAAAAAAAAEd7ADc0u69zCsdPTZXf1yufG611+xOveellWPbvXd05+cNdrP7fOYc1k1oY60EuLfPdd51EcA+7GAHAAAAAAAAgICAHQAAAAAAAAACAnYAAAAAAAAACOhgBwC4AF1rP9u9d9TzBrnd5zPMVuufb7195v2NHuvsc61pub/VY23Vc/+rz2Xnx7Z236tf8zs9Njs9b3B15s91WPvg/uxgBwAAAAAAAICAgB0AAAAAAAAAAq+3360EOE3rz8iRa/2ppSc/1keP1dUflyuf28rX8Oifcewd28jxrP55zpnjWX0uNTPPFQAAAO5o9++vgP+ygx0AAAAAAAAAAgJ2AAAAAAAAAAgI2AEAAAAAAAAgoIMd4ESzO9hr/bY7Wd0dvLK/evXtLUZ3cetRBgCO7HadtPO1TOu5lmZfb7cce/bzVtNyf1f+3PL11XeuAADAf9nBDgAAAAAAAAABATsAAAAAAAAABATsAAAAAAAAABDQwQ5wop06GwFmObOvdnYP6tn9ti23n91L7GMDAAAAANjBDgAAAAAAAAARATsAAAAAAAAABATsAAAAAAAAABDQwQ6w0M6d7KM7lEd3+16pG/hKYwUAAAAAAP4/O9gBAAAAAAAAICBgBwAAAAAAAICAgB0AAAAAAAAAAjrYAQAAAAAAACBgBzsAAAAAAAAABATsAAAAAAAAABAQsAMAAAAAAABAQMAOAAAAAAAAAAEBOwAAAAAAAAAEBOwAAAAAAAAAEBCwAwAAAAAAAEBAwA4AAAAAAAAAAQE7AAAAAAAAAAQE7AAAAAAAAAAQELADAAAAAAAAQEDADgAAAAAAAAABATsAAAAAAAAABATsAAAAAAAAABAQsAMAAAAAAABAQMAOAAAAAAAAAAEBOwAAAAAAAAAEBOwAAAAAAAAAEBCwAwAAAAAAAEBAwA4AAAAAAAAAAQE7AAAAAAAAAAQE7AAAAAAAAAAQELADAAAAAAAAQEDADgAAAAAAAAABATsAAAAAAAAABATsAAAAAAAAABAQsAMAAAAAAABA4Hv1AAAAAAAAuL/X6/XX/7/f70Uj+fdYSivHBndUm3NHRs/HnrH8ZOT4ese222NlLeWu7GAHAAAAAAAAgICAHQAAAAAAAAACAnYAAAAAAAAACLzeChAAAAAAAIY4u2d8ZJdw71h36jUePZaSr9XhWOsc/JxTtb9tnX89Yxnx9zVHx68d6+zH6uzxwK7sYAcAAAAAAACAgIAdAAAAAAAAAAICdgAAAAAAAAAI6GAHAOBSPvu8du+znDm+nccGAHBns7t4e+//6P5Gj3237t+jY60cCzzBzDmzWy/4zPH0ri2ta9/stW7mucJKdrADAAAAAAAAQEDADgAAAAAAAAABATsAAAAAAAAABL5XDwDgTnr7cEtn97Qd0YkDrDJ6bR15X+XaWP797N7HlrHUjm2dBwD42ZnXo7/Rch3Xes14tt7xjTyf2df6wDq983X3tfSTtQrmsIMdAAAAAAAAAAICdgAAAAAAAAAICNgBAAAAAAAAIKCDHaBDrV+n1mkzux+3Z3y6xYCz7NxVVqqtfWf2NPaOBQCAzOjP4q2udB03+7sC303AvkbOx9nfuc5mrYL7s4MdAAAAAAAAAAICdgAAAAAAAAAICNgBAAAAAAAAIKCDHWCg1j6d0f24vf1ER/9WJztwlp26w3vXttHnMrKz3boOAMBO197As1hv/vD5G67HDnYAAAAAAAAACAjYAQAAAAAAACDgJ+IBAFiq9lNoM3+20k/SAQBAzvUzMErLz6KrOAN2Ywc7AAAAAAAAAAQE7AAAAAAAAAAQELADAAAAAAAAQEAHO0CH1n6f1q4y/UEA96bDEgCAKym/p3A9C+zoamvV5/h8HwzXYAc7AAAAAAAAAAQE7AAAAAAAAAAQELADAAAAAAAAQEAHO8BEu/f7ALCXq/XEAQAAwNdX/fPrTt3i5VhHj22ncwXmsIMdAAAAAAAAAAICdgAAAAAAAAAICNgBAAAAAAAAIKCDHWCi1r6dsv9ndh8QAGtZ1wEAqCmvGWs9xy1GHuun4/V+L1Jy/QzsYPTa2aN33ay9x7Su69ZxnsIOdgAAAAAAAAAICNgBAAAAAAAAICBgBwAAAAAAAICADnaAjYzuvAHg2Mw+y9nHG/0e4D0FAOCadv6u4OyxfR5fjzCcq/V7zZH31frvR49t5HjOHkurnfrnYSU72AEAAAAAAAAgIGAHAAAAAAAAgICAHQAAAAAAAAACOtgBGujfAniWnfssW+lJAwC4h5ldwqN7jUutY+u5/h79OF35swCs0Lo+tByrV+/YZo/n09nfR7ce707fm0ALO9gBAAAAAAAAICBgBwAAAAAAAICAgB0AAAAAAAAAAq+3QgSAXxvdgbPT8fTNA7v6XJ9mr0Wje8t7xztyPNZxAAAAAGhnBzsAAAAAAAAABATsAAAAAAAAABAQsAMAAAAAAABA4Hv1AADurLcr92rdwgB3U67Drevm6HX883irxwIAAAAAT2QHOwAAAAAAAAAEBOwAAAAAAAAAEBCwAwAAAAAAAEDg9VbGCDDN7v24R+Pz9gAAAAAAAPA3O9gBAAAAAAAAICBgBwAAAAAAAICAgB0AAAAAAAAAAjrYAQAAAAAAACBgBzsAAAAAAAAABATsAAAAAAAAABAQsAMAAAAAAABAQMAOAAAAAAAAAAEBOwAAAPynvTtYcluFggBqV+X/f9lv8TYTV2KacBEIn7PWyAgh21NduAEAAAACAnYAAAAAAAAACAjYAQAAAAAAACAgYAcAAAAAAACAgIAdAAAAAAAAAAICdgAAAAAAAAAICNgBAAAAAAAAICBgBwAAAAAAAICAgB0AAAAAAAAAAgJ2AAAAAAAAAAgI2AEAAAAAAAAgIGAHAAAAAAAAgICAHQAAAAAAAAACAnYAAAAAAAAACAjYAQAAAAAAACAgYAcAAAAAAACAgIAdAAAAAAAAAAICdgAAAAAAAAAICNgBAAAAAAAAICBgBwAAAAAAAICAgB0AAAAAAAAAAgJ2AAAAAAAAAAgI2AFw9W4LAAAHOUlEQVQAAAAAAAAgIGAHAAAAAAAAgICAHQAAAAAAAAACAnYAAAAAAAAACAjYAQAAAAAAACAgYAcAAAAAAACAgIAdAAAAAAAAAAICdgAAAAAAAAAICNgBAAAAAAAAICBgBwAAAAAAAICAgB0AAAAAAAAAAgJ2AAAAAAAAAAgI2AEAAAAAAAAgIGAHAAAAAAAAgICAHQAAAAAAAAACAnYAAAAAAAAACAjYAQAAAAAAACAgYAcAAAAAAACAgIAdAAAAAAAAAAICdgAAAAAAAAAI/Fo9AAAAAABgvefzGR/7er26ztU6vtrq1x/Rcx8ej3tdGwDACexgBwAAAAAAAICAgB0AAAAAAAAAAgJ2AAAAAAAAAAjoYAcAgIv09ml+omuTCq01aZ39u09zq4cY2EVl53rva3kv+rv3uan8DgkAwDg72AEAAAAAAAAgIGAHAAAAAAAAgICAHQAAAAAAAAACOtgBAGCS3r7Mnr5NPaawl5367HX1AhV8twAAgD+zgx0AAAAAAAAAAgJ2AAAAAAAAAAgI2AEAAAAAAAAgoIMdAACKVHcwfzr+/bV0ssNednoGdxpLtZ3e+1aPpfozqFL12FrnGz1/5Wu/O/l5vLPR+9rLOgAAuDc72AEAAAAAAAAgIGAHAAAAAAAAgICAHQAAAAAAAAACOtgBAOAL7d41OjK+0V7TVo/y6i7hkdearXJuqtdo9boYOX6nsfzJleuq+j7P7iHvGe/sea9eByufz9mfSa339d6/XzkWAABgPTvYAQAAAAAAACAgYAcAAAAAAACAgIAdAAAAAAAAAAI62AEA4CKVvaundbbu3G+7smu41f8+u2+65cpO59HO5Op1MTKe3rFUd3nP7rue6ep1sFNv+Z2ekeqO86s70z/9/cr+9tPsNDezvyuc9r0NAODb2cEOAAAAAAAAAAEBOwAAAAAAAAAEBOwAAAAAAAAAENDBDgAARVp92e+qe5WvPNdo1+jMrtKdu7dHz9e7xqrdqWO2t79+9tz+PP/Mc//L8bOfmRHVz+vo3Ff2kq/un97pea02Otcnz81Oqud59TMFAMD3sIMdAAAAAAAAAAICdgAAAAAAAAAICNgBAAAAAAAAIKCDHQAAJhntIR85/upeU321a8zudF7ZZ7t6TfX2lPecb/W1vdttPFdq9c1Xv4+PmLkmR52+hnR738Psz8Sec5/+TAAAfDs72AEAAAAAAAAgIGAHAAAAAAAAgICAHQAAAAAAAAACOtgBAGCRkX7O0/tgd7q+O/eotvqlyY12+346vve+uI/XGXkvmt0HPdoPX9khfdp7Tc+96r3WnT7fHo9re8tXG1mnOtcBAPjJDnYAAAAAAAAACAjYAQAAAAAAACAgYAcAAAAAAACAgA52AAAocmU/Z6szdbQPd3XXqC7TGqPz2NvxfFoP8yeVz1TvvH3TPM82+xn5dOzsruvRjvbK1zrJadd6cuf6iNXfgwAA2Jsd7AAAAAAAAAAQELADAAAAAAAAQEDADgAAAAAAAAABHewAAHCgu3WuVzrpWlpWd+fO7JRe3TNevY5+Hr/6vr07+ZnZaa5Hx3LyfTrZTmuQv5t9n1Z/pgEAUMsOdgAAAAAAAAAICNgBAAAAAAAAICBgBwAAAAAAAICADnYAACjS6qOu7N+8e5dvz1zdvae08lrv1uU7c82PzlXr76uf50/jqR7LqJ2eud3XfOX4Rp+X3efqFNXzrJv7nqq/h7nvAAD3Ygc7AAAAAAAAAAQE7AAAAAAAAAAQeL78BhEAAExx5c/17v5TwivHN/ras/9l2ulaR8/XOn/P+Xb/2fOR8e00lsdj7U8T967B3mtdOddXv/esnptvcdpPe4/UV3Cd1dU+AAD8zg52AAAAAAAAAAgI2AEAAAAAAAAgIGAHAAAAAAAAgIAOdgAA2MRpva4ALXqFYS0d7PfgvRIAYC92sAMAAAAAAABAQMAOAAAAAAAAAAEBOwAAAAAAAAAEfq0eAAAA8D/9mQDALvR+r9OaewAA1rKDHQAAAAAAAAACAnYAAAAAAAAACAjYAQAAAAAAACCggx0AAAAAvtB7j7ru7z3otwcA2Jsd7AAAAAAAAAAQELADAAAAAAAAQEDADgAAAAAAAACB50upDwAAAAAAAAA02cEOAAAAAAAAAAEBOwAAAAAAAAAEBOwAAAAAAAAAEBCwAwAAAAAAAEBAwA4AAAAAAAAAAQE7AAAAAAAAAAQE7AAAAAAAAAAQELADAAAAAAAAQEDADgAAAAAAAAABATsAAAAAAAAABATsAAAAAAAAABAQsAMAAAAAAABAQMAOAAAAAAAAAAEBOwAAAAAAAAAEBOwAAAAAAAAAEBCwAwAAAAAAAEBAwA4AAAAAAAAAAQE7AAAAAAAAAAQE7AAAAAAAAAAQELADAAAAAAAAQEDADgAAAAAAAAABATsAAAAAAAAABATsAAAAAAAAABAQsAMAAAAAAABA4D/bCJQA+i5PPQAAAABJRU5ErkJggg==;" parent="1" vertex="1">
          <mxGeometry width="2008" height="1595" as="geometry" />
        </mxCell>
        <mxCell id="imPj3p6UqNmG1rbHgbQo-4" value="" style="ellipse;whiteSpace=wrap;html=1;aspect=fixed;fillColor=#f8cecc;strokeColor=#b85450;" parent="1" vertex="1">
          <mxGeometry x="480" y="450" width="50" height="50" as="geometry" />
        </mxCell>
        <mxCell id="imPj3p6UqNmG1rbHgbQo-5" value="" style="ellipse;whiteSpace=wrap;html=1;aspect=fixed;fillColor=#f8cecc;strokeColor=#b85450;" parent="1" vertex="1">
          <mxGeometry x="910" y="410" width="50" height="50" as="geometry" />
        </mxCell>
        <mxCell id="imPj3p6UqNmG1rbHgbQo-6" value="" style="triangle;whiteSpace=wrap;html=1;rotatable=1;direction=north;fillColor=#dae8fc;strokeColor=#6c8ebf;" parent="1" vertex="1">
          <mxGeometry x="471.67" y="530" width="66.67" height="50" as="geometry" />
        </mxCell>
        <mxCell id="imPj3p6UqNmG1rbHgbQo-7" value="" style="triangle;whiteSpace=wrap;html=1;rotatable=1;direction=north;fillColor=#dae8fc;strokeColor=#6c8ebf;" parent="1" vertex="1">
          <mxGeometry x="901.66" y="330" width="66.67" height="50" as="geometry" />
        </mxCell>
        <mxCell id="imPj3p6UqNmG1rbHgbQo-8" value="" style="triangle;whiteSpace=wrap;html=1;rotatable=1;direction=north;fillColor=#dae8fc;strokeColor=#6c8ebf;" parent="1" vertex="1">
          <mxGeometry x="1328.34" y="690" width="66.67" height="50" as="geometry" />
        </mxCell>
        <mxCell id="imPj3p6UqNmG1rbHgbQo-9" value="" style="triangle;whiteSpace=wrap;html=1;rotatable=1;direction=north;fillColor=#dae8fc;strokeColor=#6c8ebf;" parent="1" vertex="1">
          <mxGeometry x="1540" y="800" width="66.67" height="50" as="geometry" />
        </mxCell>
        <mxCell id="imPj3p6UqNmG1rbHgbQo-10" value="" style="whiteSpace=wrap;html=1;aspect=fixed;fillColor=#d5e8d4;strokeColor=#82b366;" parent="1" vertex="1">
          <mxGeometry x="471.67" y="200" width="50" height="50" as="geometry" />
        </mxCell>
        <mxCell id="imPj3p6UqNmG1rbHgbQo-11" value="" style="whiteSpace=wrap;html=1;aspect=fixed;fillColor=#d5e8d4;strokeColor=#82b366;" parent="1" vertex="1">
          <mxGeometry x="910" y="650" width="50" height="50" as="geometry" />
        </mxCell>
        <mxCell id="imPj3p6UqNmG1rbHgbQo-12" value="" style="whiteSpace=wrap;html=1;aspect=fixed;fillColor=#d5e8d4;strokeColor=#82b366;" parent="1" vertex="1">
          <mxGeometry x="1336.6799999999998" y="740" width="50" height="50" as="geometry" />
        </mxCell>
        <mxCell id="imPj3p6UqNmG1rbHgbQo-13" value="" style="whiteSpace=wrap;html=1;aspect=fixed;fillColor=#d5e8d4;strokeColor=#82b366;" parent="1" vertex="1">
          <mxGeometry x="1548.34" y="850" width="50" height="50" as="geometry" />
        </mxCell>
      </root>
    </mxGraphModel>
  </diagram>
</mxfile>
